<svg width="17" height="21" viewBox="0 0 17 21" fill="none" xmlns="http://www.w3.org/2000/svg">
<rect width="17" height="16" rx="8" fill="#0085E5"/>
<path d="M2 13H15L8.625 21L2 13Z" fill="#0085E5"/>
<g clip-path="url(#clip0)">
<path d="M13.4731 11.2181C13.1467 11.1762 12.8746 11.1385 12.8691 11.1339C12.864 11.1301 12.8624 11.0813 12.8653 11.0264C12.8807 10.7825 12.81 10.5532 12.664 10.3674C12.465 10.1132 12.1889 9.96528 11.8349 9.92492C11.684 9.90734 11.5816 9.909 11.4324 9.93169C11.3369 9.94659 11.1537 9.99567 11.1106 10.0184C11.0768 10.0363 11.027 10.0327 10.9499 10.007C10.7078 9.9253 10.4374 9.75375 10.0407 9.42812C9.84783 9.26987 9.61687 9.14019 9.22822 8.97311C8.90566 8.83381 8.76262 8.75405 8.64587 8.64637C8.61835 8.62161 8.42247 8.42755 8.20986 8.21518C7.99768 8.00353 7.61654 7.62381 7.36289 7.37138C6.7249 6.73624 6.00482 6.02096 5.19205 5.21055C4.81179 4.83225 4.49977 4.52269 4.49685 4.52236C4.49495 4.52149 4.46431 4.54236 4.43 4.5661L4.36695 4.61157L4.4776 4.77769C4.53858 4.86992 4.73994 5.18086 4.92445 5.4689C5.11041 5.7571 5.46826 6.31287 5.72071 6.70442C5.97317 7.09598 6.33798 7.66304 6.53222 7.96464C6.72544 8.26679 6.93435 8.58778 6.9949 8.67931L7.10555 8.84542L7.31701 8.85534C7.58911 8.86878 8.09768 8.92384 8.3131 8.96442C8.62345 9.02221 8.89076 9.0962 9.14057 9.19253C9.58723 9.36545 9.96901 9.6316 10.2728 9.98293C10.3579 10.0812 10.5501 10.3464 10.5545 10.3712C10.5565 10.3832 10.5318 10.4225 10.4886 10.4781C10.1455 10.9139 10.1638 11.4881 10.5335 11.858C10.9012 12.227 11.5097 12.3162 12.0595 12.081C12.2995 11.9785 12.5342 11.788 12.6675 11.5875C12.6915 11.5515 12.7173 11.5182 12.7244 11.5144C12.7316 11.5107 12.9932 11.5137 13.3062 11.5206L13.8731 11.5336L13.9658 11.4238C14.0168 11.3631 14.0604 11.3083 14.0628 11.3033C14.0662 11.2977 13.8005 11.2594 13.4731 11.2181ZM12.5925 10.7429C12.6145 10.8492 12.6135 10.9424 12.589 11.048C12.551 11.2112 12.4496 11.3864 12.3168 11.5193C12.2047 11.6309 12.1407 11.6769 11.9817 11.7609C11.8217 11.8454 11.7473 11.8726 11.5855 11.9056C11.2625 11.9706 10.9349 11.9069 10.7283 11.7373C10.3665 11.4418 10.4234 10.9037 10.8587 10.5314C11.0263 10.3886 11.259 10.2722 11.476 10.2249C11.863 10.1402 12.241 10.2306 12.448 10.4581C12.5109 10.5269 12.5733 10.6501 12.5925 10.7429ZM7.93188 8.50522C7.93299 8.58416 7.87063 8.67045 7.77423 8.72138C7.69423 8.76364 7.57445 8.78108 7.58028 8.75086C7.58282 8.73736 7.8413 8.39587 7.8536 8.38937C7.86796 8.38178 7.8818 8.39319 7.90808 8.43358C7.92173 8.4535 7.93196 8.48552 7.93188 8.50522ZM7.63585 8.54559C7.48367 8.74857 7.47957 8.75074 7.43821 8.6837C7.38117 8.59125 7.43858 8.46829 7.5719 8.39785C7.63549 8.36425 7.68817 8.35045 7.74151 8.35315C7.75422 8.35392 7.76721 8.35735 7.76896 8.36017C7.7707 8.36299 7.71055 8.44624 7.63585 8.54559Z" fill="white"/>
<path d="M9.98739 11.4709C9.82615 11.441 9.81943 11.4389 9.7889 11.4027C9.5814 11.1567 9.36264 11.0468 8.9761 10.9956C8.80256 10.9722 8.78929 10.9661 8.65826 10.8463C8.32766 10.5419 8.11918 10.2216 8.01874 9.86482C7.96478 9.67156 7.94524 9.42831 7.9683 9.20559L7.98008 9.08802L7.82111 9.07282C7.48332 9.03888 7.14945 9.01129 7.14811 9.01574C7.14591 9.01877 7.16929 9.05227 7.19967 9.09049C7.40926 9.35966 7.65863 9.75284 7.75416 9.96718C7.93276 10.3669 7.98111 10.7053 7.90673 11.03C7.89301 11.0915 7.86249 11.1853 7.83901 11.2398C7.79987 11.3307 7.79266 11.3411 7.73163 11.392C7.57728 11.5232 7.4585 11.6767 7.37454 11.8558C7.22404 12.1739 7.2315 12.4703 7.3952 12.7357C7.52059 12.9389 7.70343 13.0744 7.95756 13.1534C8.30001 13.2588 8.68909 13.2282 9.06708 13.065C9.54069 12.8607 9.89291 12.4397 9.94404 12.0178C9.95117 11.9588 9.97276 11.9035 10.0566 11.7263C10.1132 11.6065 10.159 11.5066 10.1577 11.5045C10.1553 11.5029 10.0794 11.4878 9.98739 11.4709ZM9.57004 11.7092C9.67567 12.0192 9.52901 12.3943 9.20219 12.6559C9.10141 12.7372 8.89938 12.8439 8.77599 12.882C8.53931 12.9546 8.28698 12.9644 8.0807 12.9078C7.97588 12.879 7.84257 12.8128 7.76027 12.7477C7.69648 12.6972 7.68121 12.6791 7.61503 12.5718C7.55277 12.4709 7.53843 12.441 7.52788 12.382C7.47642 12.1201 7.55957 11.8581 7.76726 11.6305C7.86626 11.5221 7.97288 11.4414 8.11954 11.3639C8.35542 11.2393 8.59331 11.1885 8.83732 11.2093C9.20377 11.2412 9.47366 11.4251 9.57004 11.7092Z" fill="white"/>
</g>
<defs>
<clipPath id="clip0">
<rect width="10.6136" height="7.42346" fill="white" transform="matrix(0.525071 0.851058 -0.88418 0.467147 8.56366 2)"/>
</clipPath>
</defs>
</svg>
