<svg width="35" height="32" viewBox="0 0 35 32" fill="none" xmlns="http://www.w3.org/2000/svg">
<g clip-path="url(#clip0)">
<path d="M21.9446 1.958C21.6396 2.21295 21.4726 2.42267 21.1416 2.96007C20.8689 3.39659 20.6491 3.6956 20.4801 3.85138C20.3782 3.945 20.2933 3.99088 20.0575 4.08001L19.7628 4.19305L19.7546 4.33421C19.736 4.61727 19.626 4.85205 19.4433 4.99652C19.3212 5.09404 19.2379 5.11039 19.0728 5.07183C18.9628 5.04612 18.9596 5.04401 18.9305 5.11856C18.538 6.00875 18.1658 6.47696 17.5367 6.87777C17.3557 6.99271 17.2291 7.05 16.8908 7.16225L16.4711 7.30305L16.4333 7.59288C16.3678 8.09179 16.2222 8.39689 16.0145 8.46978C15.9759 8.48331 15.8719 8.47478 15.782 8.45165L15.6159 8.41023L15.4943 8.63942C15.1102 9.37549 15.0418 9.44775 14.3978 9.79265C13.84 10.0881 13.76 10.1482 13.451 10.4946C13.1234 10.8636 13.0727 10.8975 12.8028 10.9439C12.5307 10.9911 12.4767 11.0294 12.1736 11.3994C12.0417 11.5582 10.9213 12.6845 9.47916 14.1069L7.01147 16.542L6.91742 16.5138C6.86769 16.5024 6.58659 16.3662 6.29305 16.2152C5.46088 15.7836 5.16514 15.6879 4.90008 15.7552C4.77398 15.7866 4.74058 15.8079 4.67928 15.8938C4.59603 16.013 4.56487 16.1847 4.57743 16.4537C4.58255 16.6191 4.57432 16.6573 4.50646 16.7519C4.40581 16.8901 4.40202 17.0233 4.49042 17.2753C4.56777 17.4957 4.72819 17.761 4.90682 17.9685C5.10003 18.1901 5.08436 18.1249 4.88049 17.8523C4.719 17.6388 4.68104 17.5718 4.61775 17.3914C4.52821 17.143 4.54668 17.0722 4.6514 17.2542C4.77875 17.4732 4.97593 17.7609 5.16848 18.015C5.27513 18.1544 5.36177 18.2848 5.36351 18.3035C5.3666 18.3603 4.95978 18.86 4.76475 19.0377C4.47443 19.3004 4.27216 19.4163 3.90416 19.5262C3.61641 19.611 3.58315 19.6259 3.58965 19.6719C3.63214 19.985 3.64895 20.0466 3.72803 20.1829C3.95909 20.5809 4.22104 20.7174 4.6507 20.6599C5.07822 20.6032 5.8109 20.1821 6.32048 19.7011C6.39209 19.6309 6.46457 19.5701 6.47957 19.5649C6.49242 19.5603 6.58453 19.6309 6.67839 19.7202C6.94123 19.9689 7.33421 20.3005 7.70167 20.58C9.85825 22.2223 12.4981 23.2675 16.2149 23.9541C17.6172 24.2146 18.5514 24.3403 19.7646 24.4388C22.8747 24.6919 25.9623 24.4834 28.3301 23.8617C28.5418 23.8067 28.8464 23.7288 29.0035 23.6898C29.3699 23.603 29.9568 23.3971 30.2822 23.2412C30.4228 23.1758 30.6965 23.0508 30.8896 22.9638C32.4468 22.2599 33.5971 21.1778 33.9382 20.0934C34.044 19.7572 34.0717 19.4452 34.026 19.0818C33.9749 18.6688 33.9259 18.5156 33.7835 18.3083C33.417 17.7712 32.9493 17.5076 32.3415 17.4893C31.6753 17.469 30.8617 17.6322 27.7773 18.412C25.6718 18.9448 24.824 19.1201 23.5169 19.2957C20.1169 19.7521 16.6342 19.7326 13.9255 19.2454C12.4668 18.9822 11.3019 18.6512 9.90857 18.1078C9.32845 17.8804 9.14844 17.7924 8.91273 17.6211C8.72622 17.4871 8.65137 17.4041 8.66957 17.3462C8.68777 17.2884 11.9159 14.2168 11.9845 14.1927C12.0338 14.1754 12.5159 14.4597 12.8396 14.6967C13.1141 14.8962 13.4331 15.1541 13.8553 15.5141C14.0308 15.6647 14.1844 15.7941 14.1959 15.8062C14.2378 15.8365 16.9472 13.1784 21.1955 8.94177C22.181 7.95929 23.4162 6.72845 23.9404 6.20688C24.4646 5.68531 24.8957 5.24788 24.9014 5.2298C24.9128 5.19366 24.5993 4.56078 24.4838 4.38908C24.3248 4.15543 24.2004 4.05438 23.9568 3.95654C23.5528 3.79921 23.5129 3.77462 23.3811 3.61827L23.2565 3.46902L23.0088 2.79702L22.761 2.12503L22.667 2.04224C22.5437 1.93758 22.4436 1.8923 22.2728 1.87181C22.1255 1.84954 22.0464 1.87086 21.9446 1.958ZM13.0809 21.5484C13.1176 21.6256 13.109 21.6286 13.2866 21.4698C13.4513 21.322 13.7431 21.1939 13.7512 21.265C13.7582 21.3397 13.4503 21.6278 13.3067 21.6846C13.1792 21.7326 13.1665 21.7306 13.0753 21.6629C12.9612 21.5775 12.9287 21.5053 13.0022 21.4956C13.0342 21.4908 13.0625 21.5098 13.0809 21.5484Z" fill="white"/>
</g>
<defs>
<clipPath id="clip0">
<rect width="29.054" height="22.91" fill="white" transform="translate(0 9.61819) rotate(-19.3323)"/>
</clipPath>
</defs>
</svg>
