<svg width="40" height="45" viewBox="0 0 40 45" fill="none" xmlns="http://www.w3.org/2000/svg">
<g clip-path="url(#clip0)">
<path d="M37.077 34.0575C36.0441 33.8525 35.1823 33.6713 35.1641 33.654C35.1474 33.6392 35.1338 33.463 35.133 33.2657C35.1378 32.3885 34.8745 31.5498 34.3827 30.8554C33.712 29.9058 32.8178 29.3267 31.6984 29.1225C31.2211 29.0342 30.8999 29.0232 30.4352 29.0803C30.1377 29.1183 29.5708 29.2649 29.4396 29.3399C29.3364 29.3988 29.1792 29.3775 28.9325 29.272C28.1571 28.9373 27.2769 28.2739 25.9721 27.0338C25.338 26.4312 24.5891 25.9252 23.3381 25.2584C22.2997 24.7026 21.836 24.3913 21.4499 23.9836C21.359 23.8897 20.7088 23.1574 20.0028 22.3563C19.2983 21.5579 18.0329 20.1253 17.1907 19.1729C15.0726 16.7767 12.6821 14.0779 9.98347 11.0206C8.72102 9.59332 7.6853 8.42525 7.67606 8.42358C7.66994 8.42013 7.5774 8.49032 7.47385 8.57026L7.28388 8.72383L7.66124 9.34124C7.86934 9.68396 8.55764 10.8387 9.18888 11.908C9.82474 12.9782 11.0485 15.0418 11.9118 16.4957C12.775 17.9497 14.0227 20.0551 14.6869 21.175C15.3481 22.2967 16.0619 23.4889 16.2685 23.829L16.6459 24.4464L17.312 24.5172C18.1694 24.6107 19.7771 24.8935 20.4612 25.0755C21.4467 25.3353 22.2998 25.6464 23.1019 26.0352C24.5363 26.7327 25.7834 27.7558 26.8008 29.0732C27.0857 29.4415 27.737 30.4299 27.7553 30.5201C27.7638 30.5639 27.6931 30.7014 27.5672 30.8947C26.5672 32.4095 26.7276 34.4834 27.9552 35.8785C29.1766 37.2702 31.1046 37.6929 32.7898 36.9355C33.5256 36.6056 34.229 35.9576 34.612 35.2566C34.6809 35.1305 34.7558 35.0149 34.7777 35.0024C34.7996 34.9899 35.6222 35.0443 36.6066 35.1208L38.3902 35.2615L38.6618 34.8808C38.8112 34.6706 38.9385 34.4799 38.9451 34.4623C38.9547 34.4429 38.113 34.2607 37.077 34.0575ZM34.2251 32.1981C34.3134 32.585 34.3269 32.9208 34.2686 33.2977C34.1784 33.8801 33.8913 34.4951 33.4976 34.9524C33.1656 35.3363 32.9725 35.4917 32.4881 35.7682C32.0005 36.0466 31.7717 36.1321 31.2692 36.2247C30.2659 36.4054 29.2253 36.1216 28.5456 35.4755C27.3561 34.3501 27.4386 32.4187 28.7398 31.1483C29.2407 30.6611 29.9512 30.2797 30.6245 30.1451C31.8253 29.9038 33.0292 30.2922 33.7203 31.1469C33.93 31.4054 34.1483 31.8603 34.2251 32.1981ZM19.1813 23.3563C19.1989 23.6412 19.0184 23.9421 18.7247 24.1098C18.4809 24.249 18.1076 24.292 18.1205 24.184C18.1261 24.1357 18.8771 22.947 18.9147 22.9255C18.9584 22.9006 19.0039 22.944 19.0937 23.094C19.1402 23.1681 19.1781 23.2853 19.1813 23.3563ZM18.2584 23.4529C17.8166 24.1597 17.8041 24.1669 17.6621 23.9183C17.4664 23.5754 17.6248 23.1414 18.0311 22.9095C18.2248 22.7988 18.3879 22.7578 18.556 22.7764C18.5961 22.7812 18.6375 22.7958 18.6435 22.8062C18.6494 22.8167 18.4753 23.107 18.2584 23.4529Z" fill="white"/>
<path d="M26.1701 34.3923C25.6581 34.2578 25.6367 34.2492 25.5343 34.1134C24.8383 33.192 24.1313 32.7594 22.9076 32.5106C22.3582 32.3975 22.3154 32.3734 21.8823 31.9196C20.7891 30.767 20.0768 29.5774 19.6973 28.2741C19.4932 27.5682 19.3883 26.6877 19.4209 25.8883L19.4369 25.4662L18.9347 25.3851C17.8673 25.2067 16.8134 25.052 16.81 25.0678C16.8036 25.0784 16.8831 25.203 16.9853 25.3459C17.692 26.3514 18.5459 27.8106 18.8844 28.5995C19.517 30.0705 19.7295 31.2991 19.5539 32.4578C19.5218 32.6774 19.4426 33.0106 19.3786 33.2033C19.2719 33.5245 19.2511 33.5607 19.0685 33.7344C18.607 34.1818 18.2612 34.7158 18.0294 35.3478C17.6135 36.4702 17.69 37.5405 18.2518 38.5245C18.6821 39.2783 19.2808 39.797 20.0934 40.1243C21.1882 40.5611 22.4053 40.5152 23.5637 39.9892C25.0152 39.3305 26.0466 37.8706 26.1317 36.3576C26.1436 36.1461 26.2015 35.9499 26.4331 35.3249C26.5897 34.9023 26.7156 34.5494 26.7111 34.5415C26.7035 34.5355 26.4622 34.4685 26.1701 34.3923ZM24.9015 35.1826C25.2888 36.3183 24.8951 37.6466 23.915 38.5358C23.6129 38.8124 22.9972 39.1639 22.6163 39.2808C21.8857 39.5036 21.0947 39.4971 20.4364 39.2587C20.1019 39.1374 19.6712 38.8766 19.401 38.6284C19.1915 38.4357 19.1403 38.3677 18.9132 37.9699C18.6995 37.5957 18.6491 37.4856 18.6054 37.2712C18.3968 36.3179 18.6113 35.387 19.2231 34.6004C19.5147 34.2257 19.8353 33.9524 20.2822 33.6973C21.0011 33.2868 21.7394 33.1429 22.5098 33.2583C23.6669 33.434 24.5478 34.1422 24.9015 35.1826Z" fill="white"/>
</g>
<defs>
<clipPath id="clip0">
<rect width="38.5744" height="23.033" fill="white" transform="translate(20.0025) rotate(60.2765)"/>
</clipPath>
</defs>
</svg>
