<?xml version="1.0" standalone="no"?><svg xmlns="http://www.w3.org/2000/svg" viewBox="0 0 1440 320"><path fill="#ffffff" fill-opacity="1" d="M0,160L17.1,176C34.3,192,69,224,103,240C137.1,256,171,256,206,218.7C240,181,274,107,309,69.3C342.9,32,377,32,411,42.7C445.7,53,480,75,514,96C548.6,117,583,139,617,160C651.4,181,686,203,720,229.3C754.3,256,789,288,823,256C857.1,224,891,128,926,80C960,32,994,32,1029,37.3C1062.9,43,1097,53,1131,96C1165.7,139,1200,213,1234,245.3C1268.6,277,1303,267,1337,229.3C1371.4,192,1406,128,1423,96L1440,64L1440,320L1422.9,320C1405.7,320,1371,320,1337,320C1302.9,320,1269,320,1234,320C1200,320,1166,320,1131,320C1097.1,320,1063,320,1029,320C994.3,320,960,320,926,320C891.4,320,857,320,823,320C788.6,320,754,320,720,320C685.7,320,651,320,617,320C582.9,320,549,320,514,320C480,320,446,320,411,320C377.1,320,343,320,309,320C274.3,320,240,320,206,320C171.4,320,137,320,103,320C68.6,320,34,320,17,320L0,320Z"></path></svg>